<?xml version="1.0" encoding="utf-8"?>
<!-- Generator: Adobe Illustrator 25.0.0, SVG Export Plug-In . SVG Version: 6.00 Build 0)  -->
<svg version="1.1" id="Capa_1" xmlns="http://www.w3.org/2000/svg" xmlns:xlink="http://www.w3.org/1999/xlink" x="0px" y="0px"
	 viewBox="0 0 445 445" style="enable-background:new 0 0 445 445;" xml:space="preserve">
<style type="text/css">
	.st0{fill:#444444;}
</style>
<g transform="translate(0.000000,828.000000) scale(0.100000,-0.100000)">
	<path class="st0" d="M1304.5,7816.1c-315-40-580-195-776-455c-65-86-159-263-159-299c0-6-6-25-14-43c-36-86-50-181-50-358
		c0-149,4-187,22-255c39-143,89-251,181-390c59-90,146-180,883-917c491-492,824-818,835-818c28,0,1650,1629,1697,1705
		c21,33,46,72,56,86c27,38,88,162,109,222c53,144,56,164,56,367c0,124-4,210-12,235c-7,22-24,80-38,128c-112,374-434,675-825,770
		c-213,52-481,38-687-36c-70-26-220-107-283-153c-33-24-67-44-75-44c-9,0-38,17-65,39c-26,21-94,62-149,90c-160,82-231,104-406,126
		C1467.5,7833.1,1442.5,7833.1,1304.5,7816.1z M1658.5,7465.1c76-19,219-83,268-120c18-14,33-33,33-42s-117-134-261-277
		c-143-143-265-268-271-279c-9-16,6-35,103-132c63-63,118-114,123-114c6,0,197,186,426,414c423,421,458,451,591,510
		c225,98,514,78,734-50c152-89,293-262,363-444c51-133,54-386,6-497c-8-17-14-35-14-41c0-13-55-115-98-182
		c-36-56-1418-1450-1437-1450c-6,0-321,312-701,693c-693,694-733,738-802,874c-94,183-106,420-33,612c26,70,100,194,158,266
		c115,143,315,251,508,276C1436.5,7492.1,1579.5,7484.1,1658.5,7465.1z"/>
</g>
</svg>
