<?xml version="1.0" encoding="utf-8"?>
<!-- Generator: Adobe Illustrator 25.0.0, SVG Export Plug-In . SVG Version: 6.00 Build 0)  -->
<svg version="1.1" id="Capa_1" xmlns="http://www.w3.org/2000/svg" xmlns:xlink="http://www.w3.org/1999/xlink" x="0px" y="0px"
	 viewBox="0 0 300 300" style="enable-background:new 0 0 300 300;" xml:space="preserve">
<style type="text/css">
	.st0{fill:#00B9AB;}
</style>
<g transform="translate(0.000000,268.000000) scale(0.050000,-0.050000)">
	<path class="st0" d="M444.4,4121c0-329,8-498,30-600c172-817,878-1381,1730-1381h195l14,104c52,398,254,802,536,1077
		c111,108,110,101,44,249c-217,491-659,849-1209,979c-102,24-262,30-735,31h-605V4121z"/>
	<path class="st0" d="M4284.4,3479c-621-73-1132-503-1342-1129c-47-139-48-147-54-1215l-6-1075h231h231v607v607l435,11
		c682,18,1017,141,1357,498c344,361,448,663,448,1305v412l-585-3C4677.4,3496,4356.4,3488,4284.4,3479z"/>
</g>
</svg>
