<?xml version="1.0" encoding="utf-8"?>
<!-- Generator: Adobe Illustrator 25.0.0, SVG Export Plug-In . SVG Version: 6.00 Build 0)  -->
<svg version="1.1" id="Capa_1" xmlns="http://www.w3.org/2000/svg" xmlns:xlink="http://www.w3.org/1999/xlink" x="0px" y="0px"
	 viewBox="0 0 445 445" style="enable-background:new 0 0 445 445;" xml:space="preserve">
<style type="text/css">
	.st0{fill:#444444;}
</style>
<g transform="translate(0.000000,816.000000) scale(0.100000,-0.100000)">
	<path class="st0" d="M926,7760.2c-41-22-44-24-96-68l-35-29l-3-1755l-2-1755l26-31c48-57,57-54,384,152c74,47,227,143,340,214
		c113,70,311,194,440,275c129,82,240,148,246,148c7,0,70-37,141-81c839-531,1178-739,1205-739c40,0,57,10,73,41
		c13,24,15,261,15,1776l-1,1748l-27,40c-15,23-47,50-72,63l-44,22H2240C972,7781.2,964,7781.2,926,7760.2z M3308,6049.2
		c2-1317,1-1388-15-1388c-10,0-48,19-84,43c-36,23-75,47-85,54c-10,6-71,44-134,84s-167,104-230,144c-63,39-206,129-317,198
		c-111,70-209,127-217,127c-15,0-112-58-316-188c-52-34-147-93-210-132c-215-133-493-309-504-320c-15-15-43-12-50,6
		c-3,9-6,629-6,1378c0,1049,3,1365,12,1374s258,12,1083,10l1070-3L3308,6049.2z"/>
</g>
</svg>
