<?xml version="1.0" encoding="utf-8"?>
<!-- Generator: Adobe Illustrator 25.0.0, SVG Export Plug-In . SVG Version: 6.00 Build 0)  -->
<svg version="1.1" id="Capa_1" xmlns="http://www.w3.org/2000/svg" xmlns:xlink="http://www.w3.org/1999/xlink" x="0px" y="0px"
	 viewBox="0 0 445 445" style="enable-background:new 0 0 445 446;" xml:space="preserve">
<style type="text/css">
	.st0{fill:#444444;}
</style>
<g transform="translate(0.000000,756.000000) scale(0.100000,-0.100000)">
	<path class="st0" d="M2331,7133c-114-49-301-249-465-496c-128-193-230-410-274-583c-38-149-37-348,2-519c28-118,48-190,57-199
		c5-6,9-17,9-25c0-9,22-70,49-136c79-196,101-269,147-485c10-47,17-144,19-260c2-102,4-187,5-190c0-3,75-5,167-5
		c193-1,259-13,387-74c107-49,212-128,365-272c152-144,199-170,321-177c48-2,110,1,142,7c118,25,247,113,305,209
		c56,92,68,137,68,262c0,118-2,126-53,240c-13,30-73,169-133,308c-60,140-119,275-130,300c-11,26-27,63-35,82c-24,55-31,71-63,143
		c-17,38-31,71-31,74c0,2-13,34-30,70c-16,35-30,67-30,70c0,2-13,34-30,70c-16,35-30,73-30,83s41,55,92,101s120,109,153,139
		s96,87,140,126s177,158,296,265s281,253,361,324c149,133,178,167,178,205c0,32-62,90-96,90c-24,0-987-405-1309-550
		c-11-5-65-28-120-51s-104-45-109-50c-26-24-63-8-123,54c-103,107-98,81-98,478c0,327-1,348-19,368C2394,7153,2378,7154,2331,7133z
		 M2154,6206c111-166,218-272,393-388c145-97,134-82,203-273c18-49,37-94,42-100c4-5,8-15,8-23s6-28,14-45c7-18,42-108,76-202
		c57-154,84-221,140-340c10-22,41-92,68-155s63-145,80-182c18-37,43-96,58-130c14-35,29-67,33-73c5-5,15-29,24-51c12-33,13-45,4-57
		c-15-20-144-87-167-87c-9,0-114,78-232,173c-239,191-206,175-438,221c-242,50-226,44-243,84c-9,20-21,62-27,92c-10,51-17,86-54,252
		c-8,35-21,97-30,138c-8,41-20,91-25,110s-17,71-26,115c-15,63-124,358-175,470c-23,51-16,102,30,210c4,11,32,94,61,185
		c47,149,69,196,90,188C2065,6336,2107,6277,2154,6206z"/>
	<path class="st0" d="M1074,6065c-50-54-134-217-134-260c0-9-5-25-11-36s-17-79-25-149c-12-113-12-149,1-285c8-86,19-164,25-175
		c5-10,10-30,10-44s6-43,14-63c7-21,21-65,32-98c17-54,66-175,113-280c10-22,29-67,42-100s27-64,31-70c4-5,8-15,8-23s6-28,14-45
		c33-72,76-286,76-377c0-59-29-230-55-320c-29-103,6-120,80-38c95,106,160,225,191,348c27,109,27,480,0,590c-20,83-70,238-92,287
		c-8,17-14,35-14,39c0,7-48,144-70,199c-112,281-154,490-155,760C1155,6132,1148,6144,1074,6065z"/>
	<path class="st0" d="M508,5578c-45-55-84-124-109-190c-20-52-25-75-49-243c-36-247,60-600,248-907c66-108,125-273,138-388
		c4-36,7-108,6-162c-1-80,1-97,15-102c24-10,47,17,88,102c49,101,51,104,70,193c24,108,11,251-38,414c-9,28-21,68-27,90
		s-15,49-20,60s-19,45-30,75s-25,64-30,75s-18,43-30,70c-12,28-28,64-36,82c-8,17-14,36-14,42s-4,19-9,29c-5,9-19,51-31,92
		s-26,89-30,105c-5,17-14,59-20,95c-7,36-16,88-21,115c-6,28-9,126-7,220c3,151,1,170-13,173C549,5620,528,5603,508,5578z"/>
</g>
</svg>
